#!OML:ASF F:\VICON\USERDATA\INSTALL\rory3\rory3.ASF
:FULLY-SPECIFIED
:DEGREES
2283
root -2.14075 17.8139 -0.721194 4.2805 -13.1039 0.606792
lowerback 5.62851 -1.32028 -2.7023
upperback 2.05976 -1.87347 2.62695
thorax -0.855603 -0.958635 4.34591
lowerneck -16.5559 -12.3896 -15.3594
upperneck 7.43188 -16.2101 20.1135
head 8.06672 -6.89904 6.94699
rclavicle -2.26615e-014 2.54444e-014
rhumerus -21.045 12.4189 -79.6441
rradius 43.0798
rwrist 29.4981
rhand -16.1183 5.89602
rfingers 7.12502
rthumb 10.086 -23.8423
lclavicle -2.26615e-014 2.54444e-014
lhumerus -30.1537 2.36476 90.5137
lradius 44.2468
lwrist -16.2606
lhand -17.8398 21.575
lfingers 7.12502
lthumb 8.42491 51.387
rfemur -22.4193 -1.72288 19.7795
rtibia 32.768
rfoot -10.7292 -0.200146
rtoes 12.687
lfemur -12.8604 1.70514 -14.7111
ltibia 53.0074
lfoot 4.47992 -22.1711
ltoes -22.0474
2284
root -2.16139 17.8283 -0.666749 4.44215 -13.1518 0.602302
lowerback 5.71076 -1.29959 -2.61466
upperback 2.05039 -1.84226 2.63044
thorax -0.916873 -0.941292 4.30087
lowerneck -16.2604 -12.3438 -15.2209
upperneck 7.55091 -16.1857 19.8404
head 8.00681 -6.91576 6.84748
rclavicle 5.01931e-014 -3.4191e-014
rhumerus -21.774 12.6396 -80.3868
rradius 43.0422
rwrist 29.2154
rhand -16.5209 5.88477
rfingers 7.12502
rthumb 9.69757 -23.872
lclavicle 5.01931e-014 -3.4191e-014
lhumerus -30.4858 2.1692 90.7408
lradius 44.4272
lwrist -15.8887
lhand -17.9068 21.8162
lfingers 7.12502
lthumb 8.36028 51.6308
rfemur -22.1941 -1.49318 19.7884
rtibia 32.4145
rfoot -10.8197 -0.311778
rtoes 12.9402
lfemur -13.5303 1.70823 -14.4515
ltibia 53.4416
lfoot 2.899 -21.221
ltoes -22.2964
2285
root -2.18281 17.8485 -0.608144 4.56035 -13.2081 0.689803
lowerback 5.78921 -1.2572 -2.67371
upperback 2.02178 -1.78952 2.66402
thorax -0.991924 -0.913204 4.36921
lowerneck -15.7942 -12.2894 -15.3261
upperneck 7.61082 -16.1358 19.7255
head 7.93251 -6.92881 6.85274
rclavicle -2.92213e-014 3.18055e-015
rhumerus -22.6119 13.0514 -81.0036
rradius 43.0951
rwrist 28.5459
rhand -16.6525 5.8137
rfingers 7.12502
rthumb 9.57063 -23.9489
lclavicle -2.92213e-014 3.18055e-015
lhumerus -30.9001 1.8472 91.0583
lradius 44.6914
lwrist -15.3876
lhand -17.8423 22.0044
lfingers 7.12502
lthumb 8.42257 51.8165
rfemur -21.9193 -1.28182 19.6976
rtibia 32.0338
rfoot -10.9109 -0.413012
rtoes 13.0674
lfemur -14.1495 1.81236 -14.2727
ltibia 53.7571
lfoot 1.78713 -20.0532
ltoes -21.0732
2286
root -2.20132 17.8704 -0.548647 4.67363 -13.2762 0.729423
lowerback 5.8243 -1.17929 -2.64718
upperback 2.0536 -1.68478 2.69079
thorax -0.988593 -0.86146 4.37622
lowerneck -15.5243 -12.2292 -15.2933
upperneck 7.71593 -16.066 19.4805
head 7.87675 -6.92363 6.78785
rclavicle 4.57205e-015 -2.38542e-015
rhumerus -23.1571 13.0395 -81.5741
rradius 42.8921
rwrist 28.1201
rhand -16.8379 5.37137
rfingers 7.12502
rthumb 9.39174 -24.3994
lclavicle 4.57205e-015 -2.38542e-015
lhumerus -31.2333 1.37662 91.353
lradius 45.0054
lwrist -14.9743
lhand -17.9226 22.0292
lfingers 7.12502
lthumb 8.34504 51.8443
rfemur -21.6114 -1.12146 19.658
rtibia 31.6199
rfoot -10.9042 -0.542096
rtoes 12.8375
lfemur -14.748 2.05514 -14.0721
ltibia 53.9717
lfoot 0.696775 -18.9668
ltoes -21.0708
2287
root -2.21843 17.8915 -0.49255 4.82322 -13.349 0.818119
lowerback 5.79497 -1.12952 -2.6466
upperback 2.08075 -1.61842 2.67751
thorax -0.951012 -0.829409 4.35671
lowerneck -15.3349 -12.1282 -15.2361
upperneck 7.94219 -15.9471 19.2009
head 7.85975 -6.88851 6.71433
rclavicle 9.34288e-015 -2.06736e-014
rhumerus -23.5775 12.9196 -82.1997
rradius 42.6209
rwrist 27.7348
rhand -17.1667 4.75533
rfingers 7.12502
rthumb 9.07445 -25.0295
lclavicle 9.34288e-015 -2.06736e-014
lhumerus -31.5513 0.923362 91.5251
lradius 45.2905
lwrist -14.7701
lhand -18.1525 21.8013
lfingers 7.12502
lthumb 8.12312 51.6252
rfemur -21.3575 -0.938382 19.56
rtibia 31.1751
rfoot -10.8538 -0.710747
rtoes 12.5598
lfemur -15.3924 2.29996 -13.9632
ltibia 54.0884
lfoot -0.364429 -17.7131
ltoes -21.628
2288
root -2.23663 17.9127 -0.437716 4.96462 -13.4173 0.877456
lowerback 5.81919 -1.11516 -2.67147
upperback 2.05232 -1.60049 2.69709
thorax -0.994183 -0.819214 4.39131
lowerneck -15.267 -11.9571 -15.2662
upperneck 8.45362 -15.768 19.0716
head 7.96961 -6.80277 6.71517
rclavicle -2.48481e-014 2.70347e-014
rhumerus -24.1075 12.8486 -82.7834
rradius 42.3924
rwrist 27.435
rhand -17.3974 4.50444
rfingers 7.12502
rthumb 8.85184 -25.2899
lclavicle -2.48481e-014 2.70347e-014
lhumerus -31.9191 0.55755 91.6498
lradius 45.4965
lwrist -14.6054
lhand -18.44 21.6528
lfingers 7.12502
lthumb 7.84571 51.4872
rfemur -21.0874 -0.753206 19.5011
rtibia 30.7157
rfoot -10.8254 -0.758603
rtoes 12.4055
lfemur -16.0234 2.50476 -13.8148
ltibia 54.1088
lfoot -1.19085 -16.1709
ltoes -22.092
2289
root -2.25203 17.9328 -0.380923 5.07142 -13.4827 0.835705
lowerback 5.92644 -1.08403 -2.55965
upperback 2.04055 -1.55357 2.74483
thorax -1.07233 -0.793867 4.37795
lowerneck -15.5412 -11.7472 -14.9604
upperneck 9.11755 -15.5358 18.673
head 8.12365 -6.67566 6.56779
rclavicle -1.13307e-014 1.03368e-014
rhumerus -24.6073 12.4712 -83.2736
rradius 42.0995
rwrist 27.3518
rhand -17.6234 4.44126
rfingers 7.12502
rthumb 8.63376 -25.3622
lclavicle -1.13307e-014 1.03368e-014
lhumerus -32.2974 0.215628 91.7656
lradius 45.8489
lwrist -14.3748
lhand -18.4879 21.8081
lfingers 7.12502
lthumb 7.79943 51.6442
rfemur -20.7557 -0.543974 19.5307
rtibia 30.2821
rfoot -10.8844 -0.790425
rtoes 12.7146
lfemur -16.5979 2.74315 -13.5621
ltibia 54.0281
lfoot -1.81632 -14.3382
ltoes -22.7381
